# xmcd
#
# Track frame offsets: 
#        150
#        22419
#        45203
#        66290
#        83809
#        104570
#        127889
#        148904
#        164933
#        187408
#
# Disc length: 2743 seconds
#
# Revision: 0
# Processed by: cddbd v1.5.2PL0 Copyright (c) Steve Scherf et al.
# Submitted via: ExactAudioCopy v1.0b1
#
DISCID=9b0ab50a
DTITLE=齐秦 - 美丽境界
DYEAR=2010
DGENRE=Pop
TTITLE0=偶然
TTITLE1=城里的月光
TTITLE2=像疯了一样
TTITLE3=张三的歌
TTITLE4=你的样子
TTITLE5=离开我
TTITLE6=棋子
TTITLE7=不要告别
TTITLE8=我多么羡慕你
TTITLE9=爱的箴言
EXTD=
EXTT0=
EXTT1=
EXTT2=
EXTT3=
EXTT4=
EXTT5=
EXTT6=
EXTT7=
EXTT8=
EXTT9=
PLAYORDER=
